<?xml version="1.0" encoding="utf-8"?>
<svg id="master-artboard" viewBox="0 0 260 70" version="1.1" xmlns="http://www.w3.org/2000/svg" x="0px" y="0px" style="enable-background:new 0 0 1400 980;" width="260px" height="70px"><defs><style id="ee-google-fonts">@import url(https://fonts.googleapis.com/css?family=Flamenco:300,400);</style><path id="text-path-0" d="M 129.171875 73.86518096923828 A 100 37 0 0 1 239.28125 73.86518096923828 A 100 37 0 0 1 129.171875 73.86518096923828 Z" style="fill: none; stroke: red; stroke-width: 2;"/></defs><rect id="ee-background" x="0" y="0" width="260" height="70" style="fill: white; fill-opacity: 0; pointer-events: none;"/><path d="M 129.17349243164062 59.99864959716797 L 127.78236389160156 60.2835693359375 C 127.62561798095703 60.315673828125 127.48755645751953 60.28950881958008 127.36819458007812 60.205074310302734 C 127.24229431152344 60.121978759765625 127.16329193115234 60.00205993652344 127.13118743896484 59.845314025878906 C 127.09908294677734 59.688568115234375 127.12458038330078 59.547245025634766 127.20767211914062 59.42134475708008 C 127.28289794921875 59.290252685546875 127.39888763427734 59.20865249633789 127.55563354492188 59.17654800415039 L 137.94985961914062 57.04767608642578 C 138.3547821044922 56.96474075317383 138.5953826904297 57.10940933227539 138.67161560058594 57.48168182373047 L 139.06689453125 59.41162109375 C 139.0989990234375 59.56836700439453 139.06370544433594 59.71169662475586 138.9610137939453 59.841609954833984 C 138.85699462890625 59.964988708496094 138.72007751464844 60.044071197509766 138.55026245117188 60.07884979248047 C 138.37393188476562 60.114967346191406 138.21368408203125 60.09674835205078 138.0695343017578 60.02419662475586 C 137.9240264892578 59.94511413574219 137.83523559570312 59.82720184326172 137.80313110351562 59.67045593261719 L 137.5202178955078 58.28913116455078 L 130.437255859375 59.73981475830078 L 131.5528564453125 65.1867446899414 L 137.5092010498047 63.96680450439453 L 137.3326416015625 63.104698181152344 C 137.300537109375 62.94795227050781 137.3325653076172 62.805294036865234 137.4287109375 62.67671585083008 C 137.52487182617188 62.54814147949219 137.65785217285156 62.46646499633789 137.82766723632812 62.43168640136719 C 137.99746704101562 62.396907806396484 138.15185546875 62.41972732543945 138.2908172607422 62.50014877319336 C 138.42977905273438 62.58056640625 138.51531982421875 62.69915008544922 138.54742431640625 62.85589599609375 L 139.13331604003906 65.71651458740234 C 139.16542053222656 65.87326049804688 139.13339233398438 66.01592254638672 139.0372314453125 66.14449310302734 C 138.94107055664062 66.2730712890625 138.80809020996094 66.35474395751953 138.63827514648438 66.3895263671875 C 138.46847534179688 66.42430877685547 138.3140869140625 66.40148162841797 138.1751251220703 66.3210678100586 C 138.03616333007812 66.24064636230469 137.9506378173828 66.12206268310547 137.9185333251953 65.96531677246094 L 137.73593139648438 65.07382202148438 L 131.7795867919922 66.29376220703125 L 133.07577514648438 72.62239074707031 C 133.10787963867188 72.77913665771484 133.07191467285156 72.91919708251953 132.96788024902344 73.0425796508789 C 132.86520385742188 73.17249298095703 132.72894287109375 73.25483703613281 132.55914306640625 73.28961944580078 C 132.38279724121094 73.32573699951172 132.22189331054688 73.30425262451172 132.07638549804688 73.22516632080078 C 131.93223571777344 73.15261840820312 131.84410095214844 73.03797149658203 131.81201171875 72.8812255859375 L 129.17349243164062 59.99864959716797 ZM 147.18594360351562 70.06918334960938 C 147.2099609375 70.22737121582031 147.16357421875 70.36590576171875 147.04676818847656 70.48479461669922 C 146.9375457763672 70.60926818847656 146.79725646972656 70.68451690673828 146.62588500976562 70.71054077148438 C 146.44793701171875 70.7375717163086 146.288330078125 70.7078628540039 146.14707946777344 70.62142944335938 C 146.0068359375 70.54158020019531 145.92469787597656 70.42256164550781 145.9006805419922 70.26437377929688 L 144.7685546875 62.809852600097656 L 143.2064666748047 63.047088623046875 C 143.04827880859375 63.07111358642578 142.90895080566406 63.04169845581055 142.78848266601562 62.95884704589844 C 142.66700744628906 62.869407653808594 142.59425354003906 62.7455940246582 142.5702362060547 62.587406158447266 C 142.54620361328125 62.42921829223633 142.5784149169922 62.286094665527344 142.66685485839844 62.15803146362305 C 142.7552947998047 62.02996826171875 142.8786163330078 61.953922271728516 143.03680419921875 61.92989730834961 L 145.33050537109375 61.5815544128418 C 145.69960021972656 61.52549743652344 145.91217041015625 61.68202209472656 145.96823120117188 62.05112075805664 L 147.18594360351562 70.06918334960938 M 144.00892639160156 58.14098358154297 C 144.00892639160156 58.14098358154297 143.96665954589844 58.10694122314453 143.88214111328125 58.03886032104492 C 143.80422973632812 57.96977615356445 143.74874877929688 57.826480865478516 143.71571350097656 57.60897445678711 C 143.6816864013672 57.38488006591797 143.72186279296875 57.1832275390625 143.83624267578125 57.00402069091797 C 143.9572296142578 56.82381057739258 144.1429443359375 56.71468734741211 144.39341735839844 56.67665100097656 C 144.6504669189453 56.637611389160156 144.86351013183594 56.68617630004883 145.03253173828125 56.82234191894531 C 145.20814514160156 56.95750427246094 145.31297302246094 57.13713455200195 145.34701538085938 57.36123275756836 C 145.38003540039062 57.5787353515625 145.33277893066406 57.77809524536133 145.2052001953125 57.95930480957031 C 145.084228515625 58.13951110839844 144.89520263671875 58.2491340637207 144.63815307617188 58.28817367553711 C 144.3876953125 58.326210021972656 144.17794799804688 58.27714538574219 144.00892639160156 58.14098358154297 ZM 159.45599365234375 66.34024810791016 L 159.67440795898438 68.31822204589844 C 159.71319580078125 68.66942596435547 159.52716064453125 68.86770629882812 159.1163330078125 68.91307067871094 L 151.9300079345703 69.7066421508789 C 151.51918029785156 69.75201416015625 151.29180908203125 69.5759048461914 151.24790954589844 69.1783218383789 C 151.16156005859375 68.39640808105469 151.35972595214844 67.67027282714844 151.84239196777344 66.99990844726562 C 152.3184356689453 66.33027648925781 153.0437469482422 65.5794677734375 154.018310546875 64.74746704101562 L 154.8072509765625 64.05670166015625 C 156.2216033935547 62.83407211303711 157.01849365234375 61.82048034667969 157.19793701171875 61.01592254638672 L 151.9796600341797 61.592166900634766 L 152.12673950195312 62.924072265625 C 152.14430236816406 63.08310317993164 152.0959930419922 63.22258377075195 151.98179626464844 63.34251022338867 C 151.86024475097656 63.456539154052734 151.71331787109375 63.523067474365234 151.54104614257812 63.542091369628906 C 151.36875915527344 63.561119079589844 151.2108612060547 63.52825164794922 151.06735229492188 63.44348907470703 C 150.92974853515625 63.35136795043945 150.85215759277344 63.225791931152344 150.8345947265625 63.0667610168457 L 150.6260528564453 61.17824172973633 C 150.58580017089844 60.81378936767578 150.74790954589844 60.6114387512207 151.11236572265625 60.57119369506836 L 157.8215789794922 59.8303108215332 C 157.98060607910156 59.812747955322266 158.12893676757812 59.85002517700195 158.26654052734375 59.94214630126953 C 158.40341186523438 60.02763748168945 158.4806365966797 60.14990234375 158.49819946289062 60.30893325805664 C 158.55819702148438 60.852298736572266 158.4330291748047 61.419464111328125 158.12269592285156 62.010433197021484 C 157.80572509765625 62.60213088989258 157.46600341796875 63.07896423339844 157.10354614257812 63.44093704223633 C 156.44268798828125 64.13768005371094 155.92848205566406 64.64384460449219 155.56089782714844 64.95943450927734 L 154.90341186523438 65.56526184082031 C 153.84999084472656 66.53340148925781 153.20240783691406 67.19850158691406 152.96067810058594 67.560546875 C 152.71969604492188 67.92922973632812 152.57444763183594 68.25379943847656 152.52493286132812 68.53426361083984 L 158.3197021484375 67.89435577392578 L 158.16384887695312 66.48294067382812 C 158.1462860107422 66.32390594482422 158.19790649414062 66.1840591430664 158.3187255859375 66.06340026855469 C 158.43365478515625 65.95010375976562 158.57725524902344 65.88394165039062 158.74954223632812 65.86491394042969 C 158.928466796875 65.84516143798828 159.0863494873047 65.8780288696289 159.22323608398438 65.96351623535156 C 159.36083984375 66.0556411743164 159.4384307861328 66.18121337890625 159.45599365234375 66.34024810791016 ZM 163.51202392578125 55.93851089477539 C 163.51202392578125 55.93851089477539 163.4725341796875 55.90129852294922 163.39353942871094 55.826881408691406 C 163.31455993652344 55.75246047973633 163.2670135498047 55.60554504394531 163.25091552734375 55.386138916015625 C 163.2343292236328 55.16007614135742 163.29331970214844 54.96189498901367 163.42787170410156 54.79159164428711 C 163.55580139160156 54.62177658081055 163.74940490722656 54.5273551940918 164.0087127685547 54.508331298828125 C 164.26136779785156 54.48979187011719 164.47000122070312 54.5546989440918 164.63462829589844 54.70304870605469 C 164.7992706298828 54.851402282714844 164.88987731933594 55.038604736328125 164.90646362304688 55.26466369628906 C 164.9225616455078 55.484073638916016 164.86000061035156 55.679176330566406 164.71878051757812 55.84996795654297 C 164.57757568359375 56.02075958251953 164.38064575195312 56.115421295166016 164.12799072265625 56.13396072387695 C 163.86868286132812 56.152984619140625 163.66336059570312 56.08783721923828 163.51202392578125 55.93851089477539 M 162.05868530273438 73.30140686035156 C 162.04112243652344 73.06204986572266 162.17520141601562 72.88510131835938 162.46092224121094 72.77055358886719 C 163.34417724609375 72.41830444335938 163.92001342773438 71.8847427368164 164.18841552734375 71.16984558105469 C 164.4573211669922 70.46160888671875 164.5478515625 69.50909423828125 164.4600372314453 68.31230926513672 L 163.89805603027344 60.65290069580078 L 162.32228088378906 60.76852035522461 C 162.1627197265625 60.78022766113281 162.0260772705078 60.74011993408203 161.91238403320312 60.648193359375 C 161.80484008789062 60.549129486083984 161.74522399902344 60.41981506347656 161.73350524902344 60.2602424621582 C 161.7218017578125 60.100669860839844 161.7616729736328 59.96071243286133 161.8531036376953 59.840362548828125 C 161.95120239257812 59.71952819824219 162.08001708984375 59.65325927734375 162.23959350585938 59.64155197143555 L 164.5633544921875 59.47105026245117 C 164.9290313720703 59.444217681884766 165.1255340576172 59.61697006225586 165.15284729003906 59.98929977416992 L 165.75656127929688 68.2171859741211 C 165.8594970703125 69.62007904052734 165.73793029785156 70.74198150634766 165.39187622070312 71.58289337158203 C 165.04531860351562 72.41715240478516 164.32040405273438 73.10537719726562 163.21713256835938 73.64756774902344 C 163.06243896484375 73.72576141357422 162.91526794433594 73.76998138427734 162.77565002441406 73.78022766113281 C 162.3235321044922 73.81340026855469 162.0845489501953 73.65379333496094 162.05868530273438 73.30140686035156 ZM 174.5157012939453 67.06725311279297 C 174.5157012939453 67.06725311279297 174.75888061523438 67.05848693847656 175.2452392578125 67.04096984863281 C 175.73825073242188 67.02320098876953 176.2790985107422 66.66683197021484 176.8677978515625 65.97185516357422 C 177.45648193359375 65.27687072753906 177.73162841796875 64.39639282226562 177.69322204589844 63.33041763305664 C 177.65504455566406 62.2711067199707 177.3172607421875 61.41271209716797 176.67984008789062 60.7552375793457 C 176.04241943359375 60.09775924682617 175.23402404785156 59.78666687011719 174.25466918945312 59.82195281982422 C 173.28196716308594 59.856998443603516 172.498046875 60.2254638671875 171.90293884277344 60.927345275878906 C 171.31448364257812 61.628990173339844 171.03933715820312 62.50946807861328 171.0775146484375 63.56877899169922 C 171.1159210205078 64.63475036621094 171.45370483398438 65.49314880371094 172.0908966064453 66.14395904541016 C 172.73472595214844 66.7945327758789 173.54299926757812 67.102294921875 174.5157012939453 67.06725311279297 M 171.1895751953125 66.95693969726562 C 171.1895751953125 66.95693969726562 170.9683380126953 66.7414321899414 170.52586364746094 66.31041717529297 C 170.0769805908203 65.88630676269531 169.8276824951172 64.98469543457031 169.7779998779297 63.605594635009766 C 169.72854614257812 62.233150482177734 170.12091064453125 61.088279724121094 170.95509338378906 60.170982360839844 C 171.78903198242188 59.24702453613281 172.8755645751953 58.760921478271484 174.21469116210938 58.71267318725586 C 175.56048583984375 58.6641845703125 176.6758575439453 59.070953369140625 177.56080627441406 59.9329833984375 C 178.45217895507812 60.788108825683594 178.92269897460938 61.90522384643555 178.97238159179688 63.284332275390625 C 179.02232360839844 64.67009735107422 178.63340759277344 65.81817626953125 177.80564880371094 66.72857666015625 C 176.98455810546875 67.63872528076172 175.8977813720703 68.11817169189453 174.54531860351562 68.16690063476562 C 173.19287109375 68.21562957763672 172.07427978515625 67.81230926513672 171.1895751953125 66.95693969726562 ZM 195.18418884277344 67.20270538330078 C 195.27554321289062 67.3176498413086 195.3201141357422 67.43843841552734 195.31790161132812 67.5650863647461 C 195.31558227539062 67.69840240478516 195.2232666015625 67.83014678955078 195.0409698486328 67.9603271484375 C 194.85202026367188 68.09039306640625 194.68421936035156 68.15414428710938 194.53756713867188 68.1515884399414 C 194.39759826660156 68.14915466308594 194.27215576171875 68.07695770263672 194.16128540039062 67.93500518798828 L 188.71542358398438 60.75908279418945 L 185.7264862060547 64.11754608154297 L 185.66883850097656 67.42704010009766 C 185.6660614013672 67.58702087402344 185.6004638671875 67.71589660644531 185.47207641601562 67.81367492675781 C 185.3435821533203 67.91812133789062 185.1926727294922 67.96883392333984 185.0193634033203 67.96581268310547 C 184.83938598632812 67.96267700195312 184.68701171875 67.90668487548828 184.56222534179688 67.7978286743164 C 184.43731689453125 67.69564056396484 184.37625122070312 67.5645523071289 184.37904357910156 67.40457916259766 L 184.6080322265625 54.25657272338867 L 183.18824768066406 54.23184585571289 C 183.0282745361328 54.22905731201172 182.8992156982422 54.17346954345703 182.80108642578125 54.06507873535156 C 182.6962890625 53.95656967163086 182.64529418945312 53.82232666015625 182.64808654785156 53.662349700927734 C 182.65086364746094 53.502376556396484 182.70651245117188 53.369991302490234 182.8150177001953 53.26519775390625 C 182.91697692871094 53.153621673583984 183.04794311523438 53.09922790527344 183.20791625976562 53.10201644897461 L 185.297607421875 53.13840866088867 C 185.71087646484375 53.145606994628906 185.91419982910156 53.33917999267578 185.90757751464844 53.719120025634766 L 185.75782775878906 62.31781768798828 L 192.73680114746094 54.39814758300781 L 192.1368865966797 54.387699127197266 C 191.97691345214844 54.384910583496094 191.8478546142578 54.329322814941406 191.74972534179688 54.22093200683594 C 191.6449432373047 54.112422943115234 191.59393310546875 53.978179931640625 191.5967254638672 53.81820297241211 C 191.59950256347656 53.65822982788086 191.6551513671875 53.52584457397461 191.76365661621094 53.421051025390625 C 191.86561584472656 53.30947494506836 191.99658203125 53.25508117675781 192.1565704345703 53.257869720458984 L 195.6160430908203 53.318119049072266 C 195.77601623535156 53.32090759277344 195.90834045410156 53.379886627197266 196.0130157470703 53.495059967041016 C 196.11114501953125 53.603450775146484 196.1588134765625 53.73763656616211 196.15603637695312 53.89760971069336 C 196.1532440185547 54.057586669921875 196.10093688964844 54.19002914428711 195.99908447265625 54.29494094848633 C 195.8905792236328 54.39973068237305 195.75633239746094 54.45073699951172 195.5963592529297 54.44794845581055 L 194.3465576171875 54.42618179321289 L 189.57200622558594 59.81385803222656 L 195.18418884277344 67.20270538330078 ZM 201.20333862304688 67.97752380371094 C 201.1937713623047 68.13723754882812 201.1194610595703 68.26302337646484 200.9803924560547 68.3548812866211 C 200.84756469726562 68.45378875732422 200.6946563720703 68.49806213378906 200.52163696289062 68.48770141601562 C 200.34194946289062 68.47694396972656 200.19207763671875 68.41455078125 200.07200622558594 68.30049896240234 C 199.95155334472656 68.193115234375 199.89608764648438 68.05956268310547 199.90565490722656 67.89984893798828 L 200.356201171875 60.37331771850586 L 198.77902221679688 60.278907775878906 C 198.6193084716797 60.269344329833984 198.4892120361328 60.21146774291992 198.38870239257812 60.10527420043945 C 198.28860473632812 59.99242401123047 198.2433319091797 59.85614013671875 198.25289916992188 59.69642639160156 C 198.262451171875 59.536712646484375 198.3238525390625 59.40347671508789 198.43710327148438 59.29671859741211 C 198.55035400390625 59.189964294433594 198.6868438720703 59.14136505126953 198.8465576171875 59.15092468261719 L 201.1623992919922 59.28955841064453 C 201.53506469726562 59.311866760253906 201.7102508544922 59.50935363769531 201.6879425048828 59.88201904296875 L 201.20333862304688 67.97752380371094 M 200.58892822265625 55.64878463745117 C 200.58892822265625 55.64878463745117 200.55471801757812 55.60666275024414 200.48629760742188 55.52242660522461 C 200.42453002929688 55.43858337402344 200.4002227783203 55.286861419677734 200.4133758544922 55.06725311279297 C 200.42691040039062 54.84099197387695 200.5083465576172 54.65218734741211 200.65765380859375 54.50083923339844 C 200.81361389160156 54.34988784790039 201.01803588867188 54.281982421875 201.2709197998047 54.297119140625 C 201.53045654296875 54.31265640258789 201.72865295410156 54.4046630859375 201.86549377441406 54.573143005371094 C 202.0089874267578 54.74201965332031 202.07395935058594 54.9395866394043 202.0604248046875 55.16584777832031 C 202.04727172851562 55.38545608520508 201.9593963623047 55.570533752441406 201.79676818847656 55.72108459472656 C 201.64080810546875 55.87203598022461 201.4330596923828 55.93974304199219 201.17352294921875 55.9242057800293 C 200.92063903808594 55.9090690612793 200.7257843017578 55.8172607421875 200.58892822265625 55.64878463745117 ZM 206.80929565429688 60.794944763183594 L 205.69485473632812 60.68360900878906 C 205.53564453125 60.667701721191406 205.40794372558594 60.60469436645508 205.31173706054688 60.49458694458008 C 205.21620178222656 60.377845764160156 205.1763916015625 60.239871978759766 205.19229125976562 60.080665588378906 C 205.2082061767578 59.92145538330078 205.2748565673828 59.790767669677734 205.3922576904297 59.6885986328125 C 205.50965881347656 59.586429595947266 205.64796447753906 59.54330062866211 205.8071746826172 59.5592041015625 L 207.09078979492188 59.68743896484375 C 208.07920837402344 59.78618240356445 208.51907348632812 60.379512786865234 208.41038513183594 61.46743392944336 C 209.49021911621094 60.315738677978516 210.75320434570312 59.81212615966797 212.1993408203125 59.95659637451172 C 213.06170654296875 60.04275131225586 213.74632263183594 60.332237243652344 214.253173828125 60.82506561279297 C 214.76002502441406 61.31789016723633 214.97103881835938 61.98885726928711 214.88621520996094 62.83796310424805 L 214.3852081298828 67.85299682617188 C 214.35537719726562 68.1515121459961 214.55274963378906 68.32197570800781 214.97731018066406 68.36438751220703 L 215.9126434326172 68.45783233642578 C 216.0718536376953 68.47373962402344 216.1988983154297 68.54338073730469 216.29376220703125 68.66675567626953 C 216.3820037841797 68.78946685791016 216.4181671142578 68.93042755126953 216.4022674560547 69.08963775634766 C 216.38636779785156 69.24884033203125 216.3236846923828 69.37322998046875 216.21424865722656 69.4627914428711 C 216.09750366210938 69.5583267211914 215.9595184326172 69.59814453125 215.80032348632812 69.58223724365234 L 214.86497497558594 69.4887924194336 C 213.5780487060547 69.3602294921875 212.98626708984375 68.77851867675781 213.08966064453125 67.7436752319336 L 213.5926513671875 62.708736419677734 C 213.64036560058594 62.23111343383789 213.53121948242188 61.848365783691406 213.2651824951172 61.56049346923828 C 212.99185180664062 61.278594970703125 212.59315490722656 61.11146545410156 212.069091796875 61.059112548828125 C 210.60305786132812 60.91265106201172 209.36595153808594 61.559547424316406 208.3577880859375 62.999794006347656 L 207.81105041503906 68.47254943847656 C 207.79515075683594 68.63175964355469 207.7158966064453 68.75448608398438 207.57327270507812 68.84073638916016 C 207.43663024902344 68.93428802490234 207.28207397460938 68.97244262695312 207.10960388183594 68.95521545410156 C 206.9304962158203 68.93731689453125 206.78321838378906 68.86901092529297 206.66778564453125 68.75028228759766 C 206.5516815185547 68.63818359375 206.5015869140625 68.50253295898438 206.5175018310547 68.34332275390625 L 207.22129821777344 61.29839324951172 C 207.2517852783203 60.99324417114258 207.1144561767578 60.8254280090332 206.80929565429688 60.794944763183594 ZM 220.36962890625 70.5032958984375 C 219.716064453125 70.75967407226562 219.3357391357422 71.2337417602539 219.22866821289062 71.92550659179688 C 219.1226043701172 72.61067962646484 219.32887268066406 73.19578552246094 219.84744262695312 73.68081665039062 C 220.35943603515625 74.16482543945312 221.1227264404297 74.4853515625 222.13731384277344 74.64238739013672 C 223.1519012451172 74.79943084716797 224.0880889892578 74.76556396484375 224.94590759277344 74.54080200195312 C 225.8037109375 74.31603240966797 226.2790069580078 73.90388488769531 226.37181091308594 73.30435943603516 C 226.47174072265625 72.6587142944336 225.96481323242188 72.18560791015625 224.85101318359375 71.8850326538086 C 224.4608154296875 71.79090881347656 223.22694396972656 71.43801879882812 221.14938354492188 70.82637023925781 C 220.81040954589844 70.7064437866211 220.5504913330078 70.59874725341797 220.36962890625 70.5032958984375 M 226.353271484375 65.31753540039062 C 226.353271484375 65.31753540039062 226.3802947998047 65.1429443359375 226.43434143066406 64.79376983642578 C 226.48838806152344 64.44459533691406 226.31517028808594 64.01639556884766 225.9147186279297 63.50917434692383 C 225.51425170898438 63.001949310302734 224.94508361816406 62.69123077392578 224.2071990966797 62.577022552490234 C 223.4759063720703 62.463829040527344 222.8427276611328 62.588443756103516 222.3076629638672 62.950862884521484 C 221.77259826660156 63.31328582763672 221.45101928710938 63.84366989135742 221.34292602539062 64.54202270507812 C 221.23585510253906 65.2337875366211 221.38255310058594 65.8332748413086 221.7830047607422 66.34049987792969 C 222.1834716796875 66.84772491455078 222.7493438720703 67.15792846679688 223.4806365966797 67.27112579345703 C 224.21852111816406 67.38533782958984 224.85499572753906 67.26123046875 225.3900604248047 66.89881134033203 C 225.9251251220703 66.53639221191406 226.24620056152344 66.0093002319336 226.353271484375 65.31753540039062 M 228.06822204589844 58.944862365722656 C 228.31857299804688 58.983612060546875 228.46896362304688 59.14518737792969 228.51937866210938 59.4295768737793 C 228.65773010253906 60.017662048339844 228.69273376464844 60.532405853271484 228.62442016601562 60.97381591796875 C 228.4816436767578 61.89616775512695 227.9824981689453 62.61494064331055 227.126953125 63.1301383972168 C 227.6038055419922 63.79759979248047 227.76626586914062 64.62215423583984 227.61431884765625 65.60379791259766 C 227.46237182617188 66.58544158935547 226.97232055664062 67.33260345458984 226.14414978027344 67.84529876708984 C 225.3094024658203 68.35696411132812 224.36167907714844 68.53070831298828 223.30096435546875 68.36653137207031 C 222.8266143798828 68.2931137084961 222.38552856445312 68.15737915039062 221.97767639160156 67.9593276977539 C 221.59799194335938 68.01524353027344 221.251953125 68.13707733154297 220.93955993652344 68.32483673095703 C 220.62716674804688 68.5125961303711 220.45413208007812 68.71517944335938 220.4204864501953 68.9325942993164 C 220.3735809326172 69.23564910888672 220.7342071533203 69.52083587646484 221.50234985351562 69.78813934326172 C 221.84439086914062 69.8883056640625 223.0797882080078 70.23130798339844 225.2085723876953 70.8171615600586 C 227.03631591796875 71.3429183959961 227.852294921875 72.23827362060547 227.65650939941406 73.50321197509766 C 227.50457763671875 74.48485565185547 226.8316192626953 75.14974212646484 225.6376495361328 75.49787139892578 C 224.4436798095703 75.84600830078125 223.217529296875 75.92268371582031 221.95916748046875 75.72791290283203 C 220.70082092285156 75.53314208984375 219.6753387451172 75.09783172607422 218.8827362060547 74.4219741821289 C 218.0911407470703 73.7395248413086 217.77130126953125 72.90747833251953 217.92324829101562 71.92583465576172 C 218.0751953125 70.9441909790039 218.60877990722656 70.26447296142578 219.5240020751953 69.88668823242188 C 219.20643615722656 69.62841033935547 219.0869140625 69.24562072753906 219.16543579101562 68.73832702636719 C 219.2725067138672 68.04656982421875 219.906005859375 67.57120513916016 221.06593322753906 67.31224822998047 C 220.24053955078125 66.45591735839844 219.9104461669922 65.49411010742188 220.0756378173828 64.42681884765625 C 220.24082946777344 63.359527587890625 220.72206115722656 62.560401916503906 221.5193328857422 62.02943801879883 C 222.3100128173828 61.49745178222656 223.199462890625 61.30794143676758 224.1876983642578 61.46090316772461 C 225.17593383789062 61.61386489868164 225.9285888671875 61.91587829589844 226.4456787109375 62.366947174072266 C 226.93360900878906 62.00397872924805 227.22906494140625 61.48978805541992 227.33206176757812 60.824378967285156 C 227.383056640625 60.49496841430664 227.3777618408203 60.180458068847656 227.3162078857422 59.8808479309082 C 227.1985626220703 59.37692642211914 227.33975219726562 59.07496643066406 227.73974609375 58.9749755859375 C 227.8599090576172 58.939605712890625 227.96939086914062 58.929569244384766 228.06822204589844 58.944862365722656 ZM 230.5736541748047 70.97042846679688 L 230.97799682617188 69.07303619384766 C 231.01133728027344 68.91654968261719 231.10433959960938 68.80004119873047 231.25697326660156 68.72350311279297 C 231.40170288085938 68.652099609375 231.55882263183594 68.63446044921875 231.7283477783203 68.67058563232422 C 231.90440368652344 68.70809936523438 232.0439453125 68.7889633178711 232.14698791503906 68.91316986083984 C 232.24864196777344 69.04389190673828 232.2827911376953 69.1875 232.24945068359375 69.34397888183594 L 231.9097137451172 70.93818664550781 C 232.60536193847656 71.35226440429688 233.36068725585938 71.64614868164062 234.17572021484375 71.81983184814453 C 235.9622802734375 72.20055389404297 236.96253967285156 71.88884735107422 237.17652893066406 70.88472747802734 C 237.33631896972656 70.13490295410156 236.61656188964844 69.40213012695312 235.01727294921875 68.68641662597656 C 234.94320678710938 68.65018463134766 234.77874755859375 68.5742416381836 234.52392578125 68.45858764648438 C 234.27049255371094 68.33641815185547 234.0631866455078 68.23770904541016 233.90199279785156 68.16246032714844 C 233.73428344726562 68.08582305908203 233.467529296875 67.93014526367188 233.1017608642578 67.69541931152344 C 232.73597717285156 67.460693359375 232.48500061035156 67.24702453613281 232.34881591796875 67.05441284179688 C 231.96829223632812 66.53707885742188 231.84402465820312 65.96869659423828 231.9760284423828 65.3492660522461 C 232.1080322265625 64.72984313964844 232.42041015625 64.27155303955078 232.9131622314453 63.97439193725586 C 233.4124298095703 63.678627014160156 233.9256134033203 63.52555465698242 234.4526824951172 63.51517868041992 C 234.97323608398438 63.503414154052734 235.53343200683594 63.56144714355469 236.13330078125 63.68928146362305 C 237.22869873046875 63.92271423339844 238.19093322753906 64.34929656982422 239.0199737548828 64.96903228759766 C 239.27394104003906 65.15266418457031 239.37730407714844 65.3553237915039 239.33006286621094 65.57701110839844 L 238.94447326660156 67.38638305664062 C 238.9111328125 67.5428695678711 238.8220977783203 67.65681457519531 238.6773681640625 67.72821807861328 C 238.53125 67.80614471435547 238.37342834472656 67.82704162597656 238.2039031982422 67.7909164428711 C 238.02786254882812 67.75340270996094 237.88900756835938 67.66928100585938 237.787353515625 67.5385513305664 C 237.68431091308594 67.41435241699219 237.6494598388672 67.27400207519531 237.6828155517578 67.11752319335938 L 238.0037841796875 65.61134338378906 C 237.43063354492188 65.23017883300781 236.7300262451172 64.95137023925781 235.90194702148438 64.77490234375 C 234.3044891357422 64.43447875976562 233.40919494628906 64.7174301147461 233.21604919433594 65.62374114990234 C 233.14657592773438 65.94976043701172 233.2022705078125 66.2001953125 233.3831329345703 66.37506866455078 C 233.5718994140625 66.54480743408203 233.70892333984375 66.66943359375 233.7942352294922 66.74896240234375 C 233.88465881347656 66.83639526367188 234.0565948486328 66.94120025634766 234.31002807617188 67.06336975097656 C 234.6622314453125 67.23385620117188 235.02560424804688 67.39990234375 235.400146484375 67.56151580810547 C 235.77468872070312 67.7231216430664 236.0821533203125 67.8636245727539 236.32254028320312 67.98301696777344 C 236.5578155517578 68.09449768066406 236.851806640625 68.2662124633789 237.2045440673828 68.49816131591797 C 237.55728149414062 68.7301025390625 237.8210906982422 68.96354675292969 237.9959716796875 69.198486328125 C 238.45057678222656 69.75205993652344 238.60284423828125 70.38094329833984 238.45277404785156 71.08512878417969 C 238.30271911621094 71.78932189941406 237.95245361328125 72.29747772216797 237.4019775390625 72.6095962524414 C 236.85662841796875 72.92963409423828 236.3008575439453 73.09066772460938 235.7346649169922 73.09270477294922 C 235.16847229003906 73.09474182128906 234.57240295410156 73.02906799316406 233.9464569091797 72.89567565917969 C 232.70761108398438 72.63167572021484 231.68788146972656 72.20306396484375 230.88726806640625 71.6098403930664 C 230.628173828125 71.41829681396484 230.5236358642578 71.20516204833984 230.5736541748047 70.97042846679688 Z" transform="matrix(1.8399426937103271, 0, 0, 1.8399426937103271, -186.9475860595703, -81.71332550048828)" style="fill: rgb(255, 249, 0); white-space: pre; color: rgb(51, 51, 51); fill-opacity: 1;"/><g transform="matrix(0.10044170916080475, 0, 0, 0.10044170916080475, -65.1559491133653, 11.46850299835205)"><g transform="matrix(1, 0, 0, 1, -160.653793334961, -15.156017303466797)"><g transform="matrix(1, 0, 0, 1, 0, 0)">
				<path class="st14" d="M1244.4,386.6c-3.7-33.5-23.3-63.2-52.8-79.6c-32.3-17.9-66.1-28.5-66.1-28.5l-41.5,23.3l-41.5-23.3&#10;&#9;&#9;&#9;&#9;&#9;c0,0-33.8,10.6-66.1,28.5c-29.5,16.3-49.1,46.1-52.8,79.6l-8,72H1084h168.4L1244.4,386.6z" style="fill: rgb(242, 127, 174);"/>
				<path class="st15" d="M1084,301.7l-41.5-23.3c0,0-3.2,1-8.7,2.9l50.2,107.3l50.2-107.3c-5.4-1.9-8.7-2.9-8.7-2.9L1084,301.7z" style="fill: rgb(240, 96, 159);"/>
				<path d="M 1117.5999755859375 231.89999389648438 L 1084 231.89999389648438 L 1050.4000244140625 231.89999389648438 L 1042.5 278.5 L 1084 350.1000061035156 L 1125.5 278.5 Z" class="st4" style="fill: rgb(248, 221, 178);"/>
				<path class="st5" d="M1117.6,231.9H1084h-33.6l-3,22.7c12,12.2,23,16.7,36.5,16.7c13.6,0,24.6-4.5,36.5-16.7L1117.6,231.9z" style="fill: rgb(206, 184, 141);"/>
				<path class="st4" d="M1163.9,155.3c-6.3-6-9.7-6.1-11.6-4.7c-0.1-1.4-0.2-2.1-0.2-2.1c0-62.7-68.1-55.5-68.1-55.5&#10;&#9;&#9;&#9;&#9;&#9;s-68.1-7.2-68.1,55.5c0,0-0.1,0.7-0.2,2.1c-1.9-1.4-5.4-1.3-11.6,4.7c-8.3,7.9,8.6,30.2,6.1,35.7c-2.4,5.3,1.6,14.6,9.9,11.1&#10;&#9;&#9;&#9;&#9;&#9;c2.3,7.8,5.5,15.4,10.2,21.7c19.7,26.9,34,35.8,53.8,35.8c19.7,0,34-9,53.8-35.8c4.7-6.4,7.9-13.9,10.2-21.7&#10;&#9;&#9;&#9;&#9;&#9;c8.3,3.5,12.3-5.8,9.9-11.1C1155.3,185.5,1172.2,163.2,1163.9,155.3z" style="fill: rgb(248, 221, 178);"/>
				<path d="M 1158.400024 432.899994 H 1203.800026 V 441.299994 H 1158.400024 V 432.899994 Z" class="st15" style="fill: rgb(240, 96, 159);"/>
				<path d="M 970.299988 432.899994 H 1015.699989 V 441.299994 H 970.299988 V 432.899994 Z" class="st15" style="fill: rgb(240, 96, 159);"/>
				<path class="st14" d="M1124.7,47.7H1084h-40.7c-15.2,0-27.6,12.4-27.6,27.6v75.3c0,0,27.6-19.6,68.3-19.6s68.3,19.6,68.3,19.6&#10;&#9;&#9;&#9;&#9;&#9;V75.4C1152.3,60.1,1139.9,47.7,1124.7,47.7z" style="fill: rgb(242, 127, 174);"/>
				<g>
					<path class="st8" d="M1030.2,223.8c19.7,26.9,34,35.8,53.8,35.8v-74.4c-46.1,0-63.9,16.8-63.9,16.8&#10;&#9;&#9;&#9;&#9;&#9;&#9;C1022.3,209.9,1025.6,217.5,1030.2,223.8z" style="fill: rgb(209, 211, 212);"/>
					<path class="st8" d="M1084,185.3v74.4c19.7,0,34-9,53.8-35.8c4.7-6.4,7.9-13.9,10.2-21.7C1147.9,202.1,1130.1,185.3,1084,185.3&#10;&#9;&#9;&#9;&#9;&#9;&#9;z" style="fill: rgb(209, 211, 212);"/>
				</g>
				<g>
					<path class="st8" d="M1027.2,203.2c-0.2,0-0.4,0-0.5-0.1c-1.3-0.3-2.2-1.5-2.2-2.8c-0.2-4-8.4-45.9-12.3-50.9&#10;&#9;&#9;&#9;&#9;&#9;&#9;c-0.9-1.2-0.7-2.9,0.5-3.8c1.2-0.9,2.9-0.7,3.8,0.5c5,6.4,14,51.9,13.4,54.9C1029.6,202.3,1028.4,203.2,1027.2,203.2z" style="fill: rgb(209, 211, 212);"/>
				</g>
				<g>
					<path class="st8" d="M1141.5,203.2c-1.3,0-2.4-0.9-2.6-2.2c-0.6-3,8.4-48.5,13.4-54.9c0.9-1.2,2.6-1.4,3.8-0.5&#10;&#9;&#9;&#9;&#9;&#9;&#9;c1.2,0.9,1.4,2.6,0.5,3.8c-3.9,5-12.1,46.9-12.3,50.9c0.1,1.3-0.8,2.5-2.2,2.8C1141.9,203.2,1141.7,203.2,1141.5,203.2z" style="fill: rgb(209, 211, 212);"/>
				</g>
			</g></g></g></svg>